<svg width="57" height="25" viewBox="0 0 57 25" fill="none" xmlns="http://www.w3.org/2000/svg">
<path d="M11.09 24V1.285H6.925C6.47 3.665 4.16 5.52 0.835 5.555V8.81H6.295V24H11.09ZM20.2679 12.66C20.2679 10.28 20.6179 8.25 21.4929 6.885C22.1929 5.765 23.2779 5.03 24.9229 5.03C26.6029 5.03 27.6179 5.765 28.3179 6.885C29.2279 8.25 29.5779 10.28 29.5779 12.66C29.5779 15.04 29.2279 17.07 28.3179 18.435C27.6179 19.555 26.6029 20.29 24.9229 20.29C23.2779 20.29 22.1929 19.555 21.4929 18.435C20.6179 17.07 20.2679 15.04 20.2679 12.66ZM15.4379 12.66C15.4379 15.565 15.8929 18.4 17.4329 20.745C18.9379 22.985 21.3879 24.56 24.9229 24.56C28.4579 24.56 30.9079 22.985 32.3779 20.745C33.9179 18.4 34.4079 15.565 34.4079 12.66C34.4079 9.755 33.9179 6.92 32.3779 4.575C30.9079 2.335 28.4579 0.759999 24.9229 0.759999C21.3879 0.759999 18.9379 2.335 17.4329 4.575C15.8929 6.92 15.4379 9.755 15.4379 12.66ZM42.0404 12.66C42.0404 10.28 42.3904 8.25 43.2654 6.885C43.9654 5.765 45.0504 5.03 46.6954 5.03C48.3754 5.03 49.3904 5.765 50.0904 6.885C51.0004 8.25 51.3504 10.28 51.3504 12.66C51.3504 15.04 51.0004 17.07 50.0904 18.435C49.3904 19.555 48.3754 20.29 46.6954 20.29C45.0504 20.29 43.9654 19.555 43.2654 18.435C42.3904 17.07 42.0404 15.04 42.0404 12.66ZM37.2104 12.66C37.2104 15.565 37.6654 18.4 39.2054 20.745C40.7104 22.985 43.1604 24.56 46.6954 24.56C50.2304 24.56 52.6804 22.985 54.1504 20.745C55.6904 18.4 56.1804 15.565 56.1804 12.66C56.1804 9.755 55.6904 6.92 54.1504 4.575C52.6804 2.335 50.2304 0.759999 46.6954 0.759999C43.1604 0.759999 40.7104 2.335 39.2054 4.575C37.6654 6.92 37.2104 9.755 37.2104 12.66Z" fill="#FF5722"/>
</svg>
