<svg width="57" height="26" viewBox="0 0 57 26" fill="none" xmlns="http://www.w3.org/2000/svg">
<path d="M5.305 12.07C5.2 11.685 5.13 11.23 5.13 10.81C5.13 8.675 6.32 7.03 8.735 7.03C11.01 7.03 12.165 8.5 12.165 10.145C12.165 11.72 11.395 12.91 9.47 14.065L5.725 16.305C1.665 18.755 0.405 22.01 0.37 26H17.17V21.835H6.285C6.635 20.96 7.37 20.33 8.245 19.77L12.62 17.11C15.42 15.395 17.03 13.015 17.03 10.075C17.03 6.12 13.915 2.76 8.84 2.76C3.555 2.76 0.545 6.365 0.545 10.355C0.545 10.915 0.65 11.615 0.72 11.93L5.305 12.07ZM37.4339 8.78H31.3439L25.3939 15.185V0.659999H20.7389V26H25.3939V21.45L27.3189 19.42L31.8689 26H37.5739L30.5389 16.025L37.4339 8.78ZM38.9728 13.785V17.6H45.5878V24.46H49.5078V17.6H56.1578V13.785H49.5078V6.96H45.5878V13.785H38.9728Z" fill="#FF5722"/>
</svg>
