<svg width="82" height="25" viewBox="0 0 82 25" fill="none" xmlns="http://www.w3.org/2000/svg">
<path d="M0.265 17.63C0.545 21.2 3.975 24.56 8.91 24.56C14.37 24.56 17.625 20.885 17.625 16.65C17.625 11.785 14.405 9.055 9.855 9.055C8.35 9.055 6.74 9.545 5.76 10.455L6.88 5.45H16.4V1.285H3.59L0.895 12.94C1.385 13.08 4.85 14.27 5.305 14.445C6.04 13.605 7.265 12.905 8.805 12.905C10.905 12.905 12.83 14.13 12.83 16.72C12.83 18.995 11.08 20.43 8.91 20.43C6.495 20.43 4.885 18.715 4.78 16.615L0.265 17.63ZM24.7923 12.66C24.7923 10.28 25.1423 8.25 26.0173 6.885C26.7173 5.765 27.8023 5.03 29.4473 5.03C31.1273 5.03 32.1423 5.765 32.8423 6.885C33.7523 8.25 34.1023 10.28 34.1023 12.66C34.1023 15.04 33.7523 17.07 32.8423 18.435C32.1423 19.555 31.1273 20.29 29.4473 20.29C27.8023 20.29 26.7173 19.555 26.0173 18.435C25.1423 17.07 24.7923 15.04 24.7923 12.66ZM19.9623 12.66C19.9623 15.565 20.4173 18.4 21.9573 20.745C23.4623 22.985 25.9123 24.56 29.4473 24.56C32.9823 24.56 35.4323 22.985 36.9023 20.745C38.4423 18.4 38.9323 15.565 38.9323 12.66C38.9323 9.755 38.4423 6.92 36.9023 4.575C35.4323 2.335 32.9823 0.759999 29.4473 0.759999C25.9123 0.759999 23.4623 2.335 21.9573 4.575C20.4173 6.92 19.9623 9.755 19.9623 12.66ZM46.5648 12.66C46.5648 10.28 46.9148 8.25 47.7898 6.885C48.4898 5.765 49.5748 5.03 51.2198 5.03C52.8998 5.03 53.9148 5.765 54.6148 6.885C55.5248 8.25 55.8748 10.28 55.8748 12.66C55.8748 15.04 55.5248 17.07 54.6148 18.435C53.9148 19.555 52.8998 20.29 51.2198 20.29C49.5748 20.29 48.4898 19.555 47.7898 18.435C46.9148 17.07 46.5648 15.04 46.5648 12.66ZM41.7348 12.66C41.7348 15.565 42.1898 18.4 43.7298 20.745C45.2348 22.985 47.6848 24.56 51.2198 24.56C54.7548 24.56 57.2048 22.985 58.6748 20.745C60.2148 18.4 60.7048 15.565 60.7048 12.66C60.7048 9.755 60.2148 6.92 58.6748 4.575C57.2048 2.335 54.7548 0.759999 51.2198 0.759999C47.6848 0.759999 45.2348 2.335 43.7298 4.575C42.1898 6.92 41.7348 9.755 41.7348 12.66ZM64.0607 11.785V15.6H70.6757V22.46H74.5957V15.6H81.2457V11.785H74.5957V4.96H70.6757V11.785H64.0607Z" fill="#FF5722"/>
</svg>
